<svg xmlns="http://www.w3.org/2000/svg" viewBox="0 0 710 492"><defs><style>.a{fill:#c13333;}.b{fill:#e03636;}.c,.j{font-size:20px;}.c{fill:#efef6f;font-family:MuseoSlab-300, Museo Slab;}.d{letter-spacing:-0.022em;}.e{letter-spacing:-0.031em;}.f{letter-spacing:-0.038em;}.g{letter-spacing:-0.013em;}.h{letter-spacing:-0.004em;}.i{letter-spacing:0em;}.j,.l{fill:#fff;}.j{font-family:Mistral, Mistral;}.k{fill:#e2e2e2;}</style></defs><title>etch-a-sketch</title><path class="a" d="M1003.356,143H362.644A34.644,34.644,0,0,0,328,177.644V600.356A34.644,34.644,0,0,0,362.644,635h640.711A34.644,34.644,0,0,0,1038,600.356V177.644A34.644,34.644,0,0,0,1003.356,143ZM1009,585H359V168l650,6Z" transform="translate(-328 -143)"/><path class="b" d="M1003.356,143H362.644A34.644,34.644,0,0,0,328,177.644V590.356A34.644,34.644,0,0,0,362.644,625h640.711A34.644,34.644,0,0,0,1038,590.356V177.644A34.644,34.644,0,0,0,1003.356,143ZM987,539.378A25.622,25.622,0,0,1,961.378,565H404.622A25.622,25.622,0,0,1,379,539.378V212.622A25.622,25.622,0,0,1,404.622,187H961.378A25.622,25.622,0,0,1,987,212.622Z" transform="translate(-328 -143)"/><path class="a" d="M961.378,187H404.622A25.622,25.622,0,0,0,379,212.622V539.378A25.622,25.622,0,0,0,404.622,565H961.378A25.622,25.622,0,0,0,987,539.378V212.622A25.622,25.622,0,0,0,961.378,187ZM975,549.278a11.09,11.09,0,0,1-11.09,11.09H402.09A11.09,11.09,0,0,1,391,549.278V218.722a11.09,11.09,0,0,1,11.09-11.09H963.91A11.09,11.09,0,0,1,975,218.722Z" transform="translate(-328 -143)"/><text class="c" transform="translate(210.667 31.159)">ETC<tspan class="d" x="40.439" y="0">H</tspan><tspan class="e" x="56.779" y="0">-A</tspan><tspan class="f" x="79.7" y="0">-</tspan><tspan x="88.76" y="0">SKETCH </tspan><tspan class="g" x="175.679" y="0">M</tspan><tspan x="194.239" y="0">o</tspan><tspan class="h" x="206.659" y="0">d</tspan><tspan class="i" x="218.939" y="0">el #559</tspan></text><text class="j" transform="translate(507.677 446.001)">Eric Schirtzinger<tspan x="14.043" y="24">assignment #1</tspan></text><polygon class="k" points="41 439 10 439 10 446 72 446 72 439 41 439"/><circle class="k" cx="41" cy="446" r="31"/><circle class="l" cx="41" cy="439" r="31"/><polygon class="k" points="41 439 10 439 10 446 72 446 72 439 41 439"/><circle class="k" cx="41" cy="446" r="31"/><circle class="l" cx="41" cy="439" r="31"/><polygon class="k" points="671 439 640 439 640 446 702 446 702 439 671 439"/><circle class="k" cx="671" cy="446" r="31"/><circle class="l" cx="671" cy="439" r="31"/></svg>